<svg width="20" height="20" viewBox="0 0 20 20" fill="none" xmlns="http://www.w3.org/2000/svg">
<g clip-path="url(#clip0_3_60)">
<path d="M16.6667 2.5H3.33332C2.40832 2.5 1.66666 3.24167 1.66666 4.16667V14.1667C1.66666 15.0833 2.40832 15.8333 3.33332 15.8333H6.66666V17.5H13.3333V15.8333H16.6667C17.5833 15.8333 18.3333 15.0833 18.3333 14.1667V4.16667C18.3333 3.24167 17.5833 2.5 16.6667 2.5ZM16.6667 14.1667H3.33332V4.16667H16.6667V14.1667Z" fill="white"/>
<path d="M5.41669 6.25H7.50002V5H4.16669V8.33333H5.41669V6.25Z" fill="white"/>
<path d="M15.8334 10H14.5834V12.0833H12.5V13.3333H15.8334V10Z" fill="white"/>
</g>
<defs>
<clipPath id="clip0_3_60">
<rect width="20" height="20" fill="white"/>
</clipPath>
</defs>
</svg>
